<svg xmlns="http://www.w3.org/2000/svg" width="88" height="88" viewBox="0 0 88 88">
  <metadata><?xpacket begin="﻿" id="W5M0MpCehiHzreSzNTczkc9d"?>
<x:xmpmeta xmlns:x="adobe:ns:meta/" x:xmptk="Adobe XMP Core 5.6-c140 79.160451, 2017/05/06-01:08:21        ">
   <rdf:RDF xmlns:rdf="http://www.w3.org/1999/02/22-rdf-syntax-ns#">
      <rdf:Description rdf:about=""/>
   </rdf:RDF>
</x:xmpmeta>
                                                                                                    
                                                                                                    
                                                                                                    
                                                                                                    
                                                                                                    
                                                                                                    
                                                                                                    
                                                                                                    
                                                                                                    
                                                                                                    
                                                                                                    
                                                                                                    
                                                                                                    
                                                                                                    
                                                                                                    
                                                                                                    
                                                                                                    
                                                                                                    
                                                                                                    
                                                                                                    
                           
<?xpacket end="w"?></metadata>
<defs>
    <style>
      .cls-1 {
        fill: #feb5ae;
        fill-rule: evenodd;
      }
    </style>
  </defs>
  <path class="cls-1" d="M73.641,73.641c-6.4,6.706-17.52,9.222-29.641,9.381-12.122-.159-23.243-2.676-29.641-9.381C7.653,67.243,5.136,56.122,4.977,44c0.159-12.122,2.676-23.243,9.381-29.641C20.757,7.653,31.878,5.136,44,4.977c12.122,0.159,23.243,2.676,29.641,9.381,6.706,6.4,9.222,17.52,9.381,29.641C82.864,56.122,80.347,67.243,73.641,73.641ZM68.3,19.7c-5.246-5.5-14.364-7.561-24.3-7.691-9.938.13-19.056,2.194-24.3,7.691-5.5,5.246-7.561,14.364-7.691,24.3,0.13,9.938,2.194,19.056,7.691,24.3,5.246,5.5,14.364,7.561,24.3,7.691,9.938-.13,19.056-2.194,24.3-7.691,5.5-5.246,7.561-14.364,7.691-24.3C75.863,34.062,73.8,24.944,68.3,19.7ZM35.936,36.152q2.01,1.126,9.095,2.813l7.017,1.652a21.138,21.138,0,0,1,7.834,3.27q4.769,3.621,4.769,10.512,0,8.578-6.086,12.27a26.729,26.729,0,0,1-14.143,3.691q-9.395,0-14.708-4.922Q24.4,60.551,24.5,52.183h6.574a14.509,14.509,0,0,0,2,7.137q3.353,5.133,11.819,5.133A20.217,20.217,0,0,0,51.8,63.328q6.028-2.18,6.028-7.8,0-4.219-2.554-6.012a25.309,25.309,0,0,0-8.106-3.059L40.394,44.87q-6.641-1.547-9.4-3.41-4.768-3.234-4.768-9.668a15.088,15.088,0,0,1,4.687-11.426Q35.6,15.9,44.187,15.9a22.608,22.608,0,0,1,13.428,3.92q5.525,3.921,5.525,12.533H56.566a13.3,13.3,0,0,0-2.157-6.363q-3.068-4.042-10.415-4.043-5.932,0-8.528,2.6a8.3,8.3,0,0,0-2.6,6.047A5.941,5.941,0,0,0,35.936,36.152Z"/>
</svg>
